<svg id="Layer_1" data-name="Layer 1" xmlns="http://www.w3.org/2000/svg" xmlns:xlink="http://www.w3.org/1999/xlink" viewBox="0 0 219.86 240.86"><defs><style>.cls-1{fill:url(#linear-gradient);}</style><linearGradient id="linear-gradient" x1="11.71" y1="125" x2="231.57" y2="125" gradientUnits="userSpaceOnUse"><stop offset="0" stop-color="#2e81f7"/><stop offset="1" stop-color="#00c7fd"/></linearGradient></defs><title>rank_bg</title><path class="cls-1" d="M11.71,80.18v89.64a30.39,30.39,0,0,0,15.37,26.42l79.54,45.22a30.36,30.36,0,0,0,30,0l79.54-45.22a30.39,30.39,0,0,0,15.37-26.42V80.18A30.39,30.39,0,0,0,216.2,53.76L136.66,8.54a30.36,30.36,0,0,0-30,0L27.08,53.76A30.39,30.39,0,0,0,11.71,80.18Z" transform="translate(-11.71 -4.57)"/></svg>