<?xml version="1.0" encoding="utf-8"?>
<!-- Generator: Adobe Illustrator 23.0.1, SVG Export Plug-In . SVG Version: 6.00 Build 0)  -->
<svg version="1.1" id="Capa_1" xmlns="http://www.w3.org/2000/svg" xmlns:xlink="http://www.w3.org/1999/xlink" x="0px" y="0px"
	 viewBox="0 0 790.9 790.9" style="enable-background:new 0 0 790.9 790.9;" xml:space="preserve">
<style type="text/css">
	.st0{fill:url(#SVGID_1_);}
	.st1{fill:url(#SVGID_2_);}
</style>
<g>
	<g>
		<linearGradient id="SVGID_1_" gradientUnits="userSpaceOnUse" x1="73.19" y1="650.738" x2="717.677" y2="650.738">
			<stop  offset="0" style="stop-color:#2E81F7"/>
			<stop  offset="0.5" style="stop-color:#00C7FD"/>
			<stop  offset="1" style="stop-color:#35DFCD"/>
		</linearGradient>
		<path class="st0" d="M716.5,669.7c-0.5-5.6-1.1-11.2-2-16.8c0,0-3.3-18.1-3.9-20.9c-7.3-31.9-27.1-55.2-53.8-73.4
			c-5-3.4-10.2-6.3-15.5-9.1c-6.9-3.6-111.6-38.1-114.4-38.9c0.6,3.6,1.1,7.5,1.2,11.8c14.6,10.2,57.6,47.2,38,116.3
			c0,0-30.9-36.8-62.3-41.5c-30,52.3-81,118.4-108.5,135.8c-27.5-17.4-78.5-83.5-108.5-135.8c-31.5,4.7-62.3,41.5-62.3,41.5
			c-19.5-69.1,23.5-106.1,38-116.3c0.1-4.3,0.6-8.3,1.2-11.8c-2.7,0.9-107.4,35.3-114.4,38.9c-5.3,2.8-10.4,5.7-15.4,9.1
			c-26.7,18.1-46.5,41.5-53.8,73.4c-0.6,2.8-3.9,20.9-3.9,20.9c-0.8,5.6-1.5,11.2-2,16.8c0,0.2-1.2,29.5-1.2,29.7
			c0,0,0.3,13.7,0.5,17c0.9,18.2,4.8,35.1,18,49.2c16.9,18,37.5,25.3,61.6,25.3c80.7,0,161.4,0,242.1,0c80.7,0,161.4,0,242.1,0
			c24.1,0,44.7-7.3,61.6-25.3c13.3-14.1,17.1-31,18-49.2c0.2-3.3,0.5-17,0.5-17C717.7,699.2,716.5,669.9,716.5,669.7z"/>
		<linearGradient id="SVGID_2_" gradientUnits="userSpaceOnUse" x1="178.192" y1="324.7805" x2="612.673" y2="324.7805">
			<stop  offset="0" style="stop-color:#2E81F7"/>
			<stop  offset="0.5" style="stop-color:#00C7FD"/>
			<stop  offset="1" style="stop-color:#35DFCD"/>
		</linearGradient>
		<path class="st1" d="M205.5,340.6c2.5,9.1,4.1,17.6,4.1,25.7c0,2.7-0.2,5.3-0.6,7.9c-2.3,7.7-18.4,33.5-21,37.8
			c28.4,30.6,66.1,37.8,103.2,45.6c11,2.3,22.2,3.7,34.1,5.2c3.8,0.7,7.7,1.4,11.6,2.2l-18.9,55.1c0,0-0.5,80.5,77.3,129.4h0.5
			c77.8-49,77.3-129.4,77.3-129.4L454.1,465c3.9-0.7,7.8-1.5,11.6-2.2c11.9-1.5,23.1-2.9,34.1-5.2c37.1-7.8,74.8-14.9,103.2-45.6
			c-2.6-4.3-18.7-30.1-21-37.8c-0.4-2.6-0.6-5.3-0.6-7.9c-0.1-8.1,1.5-16.6,4-25.7c2.4-8.6,5.1-17.2,7.7-25.8
			c12.6-28,19.6-59.1,19.6-91.9c0-121.8-96.8-220.7-217-222.9v0c-0.1,0-0.2,0-0.2,0c-0.1,0-0.2,0-0.2,0v0
			c-120.2,2.2-217,101.2-217,222.9c0,32.7,7,63.8,19.6,91.9C200.4,323.4,203.1,332,205.5,340.6z"/>
	</g>
</g>
</svg>
