<?xml version="1.0" encoding="utf-8"?>
<!-- Generator: Adobe Illustrator 23.0.1, SVG Export Plug-In . SVG Version: 6.00 Build 0)  -->
<svg version="1.1" id="Capa_1" xmlns="http://www.w3.org/2000/svg" xmlns:xlink="http://www.w3.org/1999/xlink" x="0px" y="0px"
	 viewBox="0 0 512 512" style="enable-background:new 0 0 512 512;" xml:space="preserve">
<style type="text/css">
	.st0{fill:url(#SVGID_1_);}
	.st1{fill:url(#SVGID_2_);}
</style>
<g>
	<linearGradient id="SVGID_1_" gradientUnits="userSpaceOnUse" x1="-8.239037e-05" y1="348.8885" x2="290.5101" y2="348.8885">
		<stop  offset="0" style="stop-color:#2E81F7"/>
		<stop  offset="0.5" style="stop-color:#00C7FD"/>
		<stop  offset="1" style="stop-color:#35DFCD"/>
	</linearGradient>
	<path class="st0" d="M290.5,296c0-43.5-35.3-78.8-78.8-78.8c-27.9,0-52.4,14.5-66.4,36.3c-14-21.8-38.5-36.3-66.4-36.3
		C35.3,217.2,0,252.5,0,296c0,0-6.6,86.1,145.2,184.6C297.1,382.1,290.5,296,290.5,296z"/>
	<linearGradient id="SVGID_2_" gradientUnits="userSpaceOnUse" x1="105.5025" y1="215.707" x2="511.9998" y2="215.707">
		<stop  offset="0" style="stop-color:#2E81F7"/>
		<stop  offset="0.5" style="stop-color:#00C7FD"/>
		<stop  offset="1" style="stop-color:#35DFCD"/>
	</linearGradient>
	<path class="st1" d="M511.9,141.7c0-60.9-49.4-110.3-110.3-110.3c-39,0-73.3,20.2-92.9,50.8c-19.6-30.5-53.9-50.8-92.9-50.8
		c-60.9,0-110.3,49.4-110.3,110.3c0,0-1.5,19.6,10.7,52c10.4,3.8,20.2,9.2,29,15.9c18.7-14.4,41.9-22.5,66.4-22.5
		c29.1,0,56.4,11.3,77,31.9c20.4,20.4,31.7,47.4,31.9,76.1c0.3,7.6-0.3,33.4-19,69.9c-3.7,7.2-7.9,14.5-12.6,21.7
		c6.4,4.4,13,8.8,19.9,13.3C521.2,262.2,511.9,141.7,511.9,141.7L511.9,141.7z"/>
</g>
</svg>
